<svg xmlns="http://www.w3.org/2000/svg" version="1.1" xmlns:xlink="http://www.w3.org/1999/xlink" xmlns:svgjs="http://svgjs.dev/svgjs" width="1000" height="1000"><svg width="1000" height="1000" viewBox="0 0 1000 1000" fill="none" xmlns="http://www.w3.org/2000/svg">
<g clip-path="url(#clip0_7_2)">
<circle cx="500" cy="500" r="500" fill="black"></circle>
<path d="M504.416 670.64C504.075 676.101 501.856 680.539 497.76 683.952C493.664 687.365 488.885 689.072 483.424 689.072C477.28 689.072 472.16 687.024 468.064 682.928C463.968 678.832 461.92 672.517 461.92 663.984C461.92 641.797 462.944 617.733 464.992 591.792C467.04 565.509 469.6 539.568 472.672 513.968C475.744 488.027 478.816 464.133 481.888 442.288C470.624 458.331 458.336 476.08 445.024 495.536C432.053 514.992 418.741 534.277 405.088 553.392C391.435 572.507 378.123 590.085 365.152 606.128C352.181 621.829 340.405 634.629 329.824 644.528C319.243 654.085 310.539 658.864 303.712 658.864C291.083 658.864 280.16 653.915 270.944 644.016C261.728 633.776 257.12 620.976 257.12 605.616C257.12 599.472 257.803 591.109 259.168 580.528C260.533 569.605 262.069 558.171 263.776 546.224C265.483 534.277 267.019 523.184 268.384 512.944C269.749 502.363 270.432 494.512 270.432 489.392C270.432 484.613 269.92 480.517 268.896 477.104C268.213 473.349 266.507 471.472 263.776 471.472C259.68 471.472 254.048 476.08 246.88 485.296C239.712 494.171 231.691 505.605 222.816 519.6C214.283 533.595 205.408 548.443 196.192 564.144C187.317 579.845 178.955 594.693 171.104 608.688C163.253 622.341 156.597 633.093 151.136 640.944C146.699 648.453 142.603 653.915 138.848 657.328C135.093 660.741 130.485 662.448 125.024 662.448C118.539 662.448 112.565 659.035 107.104 652.208C101.984 645.381 99.424 637.019 99.424 627.12C99.424 621.317 100.448 612.272 102.496 599.984C104.544 587.355 107.104 573.531 110.176 558.512C113.589 543.493 116.832 528.816 119.904 514.48C123.317 499.803 126.219 487.344 128.608 477.104C131.339 465.499 134.752 457.648 138.848 453.552C142.944 449.456 147.381 447.408 152.16 447.408C158.645 447.408 163.765 449.797 167.52 454.576C171.616 459.013 173.664 466.011 173.664 475.568C173.664 477.275 172.64 481.883 170.592 489.392C168.544 496.56 165.984 505.435 162.912 516.016C160.181 526.256 157.109 537.008 153.696 548.272C150.624 559.536 148.064 569.947 146.016 579.504C153.525 566.875 161.376 553.221 169.568 538.544C178.101 523.867 186.635 509.36 195.168 495.024C203.701 480.347 212.235 467.035 220.768 455.088C229.301 442.8 237.664 433.072 245.856 425.904C254.048 418.736 261.899 415.152 269.408 415.152C278.283 415.152 286.475 417.883 293.984 423.344C301.835 428.805 308.149 436.144 312.928 445.36C317.707 454.576 320.096 464.816 320.096 476.08C320.096 483.931 318.731 495.024 316 509.36C313.269 523.355 310.368 538.544 307.296 554.928C304.565 571.312 302.859 586.843 302.176 601.52C302.176 604.933 303.2 606.64 305.248 606.64C306.955 606.64 309.003 605.445 311.392 603.056C321.291 592.133 332.213 578.992 344.16 563.632C356.107 547.931 368.224 531.376 380.512 513.968C393.141 496.56 405.6 479.493 417.888 462.768C430.176 445.701 441.611 430.341 452.192 416.688C463.115 402.693 472.672 391.6 480.864 383.408C489.397 375.216 496.053 371.12 500.832 371.12C511.072 371.12 518.923 374.021 524.384 379.824C529.845 385.627 532.576 395.355 532.576 409.008C532.576 419.931 531.723 434.096 530.016 451.504C528.651 468.912 526.773 487.856 524.384 508.336C522.336 528.816 519.947 549.467 517.216 570.288C514.827 590.768 512.437 609.883 510.048 627.632C507.659 645.04 505.781 659.376 504.416 670.64ZM648.536 731.568C642.733 731.568 638.125 729.52 634.712 725.424C631.299 721.328 629.592 714.501 629.592 704.944C629.592 687.877 630.445 670.299 632.152 652.208C634.2 633.776 635.224 616.709 635.224 601.008C635.224 565.168 631.981 535.643 625.496 512.432C619.352 488.88 605.869 473.008 585.048 464.816C580.269 463.109 576.856 461.232 574.808 459.184C572.419 457.136 571.224 453.893 571.224 449.456C571.224 444.677 573.101 440.752 576.856 437.68C580.269 434.608 586.755 433.072 596.312 433.072C604.163 433.072 614.573 433.413 627.544 434.096C640.515 434.779 654.509 435.461 669.528 436.144C680.109 398.256 692.056 366.853 705.368 341.936C718.68 317.019 733.187 297.392 748.888 283.056C764.931 268.72 781.827 258.48 799.576 252.336C817.667 246.192 836.44 243.12 855.896 243.12C864.429 243.12 869.891 244.315 872.28 246.704C874.669 248.752 875.864 251.995 875.864 256.432C875.864 261.893 874.157 267.696 870.744 273.84C867.331 279.643 860.333 283.397 849.752 285.104C826.541 289.2 805.891 296.709 787.8 307.632C769.709 318.555 754.008 334.427 740.696 355.248C727.384 375.728 716.291 402.693 707.416 436.144C740.184 435.461 768.344 433.755 791.896 431.024C815.448 427.952 835.075 424.709 850.776 421.296C866.819 417.541 879.619 414.469 889.176 412.08C898.733 409.349 906.072 407.984 911.192 407.984C916.995 407.984 920.579 409.52 921.944 412.592C923.309 415.664 923.992 418.907 923.992 422.32C923.992 428.805 917.848 435.12 905.56 441.264C893.272 447.067 877.059 452.357 856.92 457.136C837.123 461.573 815.277 465.157 791.384 467.888C767.491 470.619 743.939 471.984 720.728 471.984C716.973 471.984 713.219 471.984 709.464 471.984C706.051 471.984 702.467 471.984 698.712 471.984C698.029 474.373 697.517 476.933 697.176 479.664C693.763 499.461 690.349 520.453 686.936 542.64C683.864 564.485 680.963 585.989 678.232 607.152C675.843 627.973 673.965 646.917 672.6 663.984C671.235 681.051 670.552 694.704 670.552 704.944C670.552 713.477 668.504 719.963 664.408 724.4C660.312 729.179 655.021 731.568 648.536 731.568ZM660.824 469.936C650.925 468.912 641.709 467.547 633.176 465.84C637.613 470.96 641.368 476.933 644.44 483.76C647.853 490.587 650.755 497.925 653.144 505.776C655.533 493.147 658.093 481.2 660.824 469.936Z" fill="white"></path>
</g>
<defs>
<clipPath id="SvgjsClipPath1001">
<rect width="1000" height="1000" fill="white"></rect>
</clipPath>
</defs>
</svg><style>@media (prefers-color-scheme: light) { :root { filter: none; } }
@media (prefers-color-scheme: dark) { :root { filter: none; } }
</style></svg>