<svg xmlns="http://www.w3.org/2000/svg" version="1.1" xmlns:xlink="http://www.w3.org/1999/xlink" xmlns:svgjs="http://svgjs.dev/svgjs" width="1000" height="1000"><svg width="1000" height="1000" viewBox="0 0 1000 1000" fill="none" xmlns="http://www.w3.org/2000/svg">
<path d="M500.728 662.776C498.776 680.344 488.365 689.128 469.496 689.128C459.736 689.128 451.928 686.2 446.072 680.344C440.541 674.488 437.776 666.029 437.776 654.968C437.776 636.099 438.589 615.928 440.216 594.456C442.168 572.659 444.445 550.699 447.048 528.576C449.976 506.453 452.741 485.307 455.344 465.136C443.632 482.053 431.269 499.459 418.256 517.352C405.243 535.245 392.229 552.651 379.216 569.568C366.203 586.485 353.677 601.776 341.64 615.44C329.928 628.779 319.192 639.515 309.432 647.648C299.672 655.456 291.539 659.36 285.032 659.36C269.416 659.36 255.915 653.667 244.528 642.28C233.141 630.568 227.448 615.765 227.448 597.872C227.448 591.691 228.099 583.395 229.4 572.984C230.701 562.248 232.328 550.861 234.28 538.824C236.232 526.787 237.859 515.4 239.16 504.664C240.461 493.928 241.112 485.469 241.112 479.288C241.112 479.288 241.112 478.963 241.112 478.312C241.437 476.685 241.112 475.872 240.136 475.872C238.835 475.872 235.256 480.264 229.4 489.048C223.544 497.507 216.387 508.568 207.928 522.232C199.469 535.896 190.523 550.211 181.088 565.176C171.979 580.141 163.357 594.131 155.224 607.144C147.416 620.157 140.909 630.243 135.704 637.4C128.547 648.461 121.877 655.456 115.696 658.384C109.515 661.312 102.357 662.776 94.224 662.776C82.8373 662.776 73.8907 659.035 67.384 651.552C61.2027 643.744 58.112 632.845 58.112 618.856C58.112 613 59.088 603.891 61.04 591.528C63.3173 579.165 66.0827 565.501 69.336 550.536C72.5893 535.245 75.8427 520.443 79.096 506.128C82.6747 491.488 85.7653 479.125 88.368 469.04C91.296 455.701 95.3627 446.429 100.568 441.224C106.099 435.693 113.093 432.928 121.552 432.928C141.397 432.928 151.32 442.688 151.32 462.208C151.32 465.787 150.181 471.643 147.904 479.776C145.627 487.909 142.861 497.344 139.608 508.08C136.355 518.816 132.939 529.877 129.36 541.264C125.781 552.325 122.853 562.736 120.576 572.496C128.384 558.832 136.843 544.192 145.952 528.576C155.061 512.96 164.333 497.669 173.768 482.704C183.528 467.739 193.125 454.075 202.56 441.712C212.32 429.349 221.917 419.589 231.352 412.432C240.787 404.949 249.733 401.208 258.192 401.208C266.651 401.208 274.947 404.299 283.08 410.48C291.213 416.336 297.883 423.981 303.088 433.416C308.619 442.525 311.384 452.285 311.384 462.696C311.384 472.456 310.083 484.168 307.48 497.832C304.877 511.496 301.949 525.811 298.696 540.776C295.443 555.741 293.165 570.381 291.864 584.696C302.925 572.333 314.637 558.344 327 542.728C339.363 526.787 352.051 510.357 365.064 493.44C378.077 476.523 390.765 460.093 403.128 444.152C415.816 428.211 427.528 413.733 438.264 400.72C449.325 387.707 459.085 377.459 467.544 369.976C476.003 362.168 482.509 358.264 487.064 358.264C500.403 358.264 510.813 361.843 518.296 369C526.104 375.832 530.008 387.869 530.008 405.112C530.008 415.848 529.195 429.837 527.568 447.08C526.267 464.323 524.315 483.029 521.712 503.2C519.435 523.045 516.832 543.216 513.904 563.712C511.301 583.883 508.861 602.589 506.584 619.832C504.307 637.075 502.355 651.389 500.728 662.776ZM642.237 728.656C634.103 728.656 627.109 726.216 621.253 721.336C615.397 716.781 612.794 707.347 613.445 693.032C614.095 677.091 615.234 660.499 616.861 643.256C618.487 626.013 620.277 609.909 622.229 594.944C626.458 562.085 627.434 536.709 625.157 518.816C623.205 500.597 618.162 487.584 610.029 479.776C602.221 471.968 591.647 466.763 578.309 464.16C571.802 462.859 566.597 460.419 562.693 456.84C558.789 452.936 556.837 447.893 556.837 441.712C556.837 433.579 560.09 428.211 566.597 425.608C572.778 423.005 580.749 421.704 590.509 421.704C597.991 421.704 607.589 422.192 619.301 423.168C631.338 423.819 644.189 424.307 657.853 424.632C669.239 387.219 682.09 356.312 696.405 331.912C710.719 307.512 726.335 288.317 743.253 274.328C760.17 260.013 778.063 250.091 796.933 244.56C815.802 238.704 835.322 235.776 855.493 235.776C880.543 235.776 893.069 244.723 893.069 262.616C893.069 271.4 888.839 278.069 880.381 282.624C871.922 287.179 859.071 290.92 841.829 293.848C821.333 297.427 803.277 304.096 787.661 313.856C772.37 323.616 758.869 337.443 747.157 355.336C735.77 373.229 725.685 396.328 716.901 424.632C762.122 423.656 799.21 421.216 828.165 417.312C857.119 413.408 879.405 409.667 895.021 406.088C910.962 402.184 922.023 400.232 928.205 400.232C936.989 400.232 942.357 402.347 944.309 406.576C946.586 410.805 947.725 415.36 947.725 420.24C947.725 425.771 942.519 431.464 932.109 437.32C925.277 441.224 914.378 445.616 899.413 450.496C884.447 455.051 866.879 459.605 846.709 464.16C826.538 468.389 805.229 471.968 782.781 474.896C760.658 477.499 739.023 478.8 717.877 478.8C712.671 478.8 707.954 478.8 703.725 478.8C700.146 497.669 696.567 517.677 692.989 538.824C689.735 559.645 686.807 579.979 684.205 599.824C681.602 619.669 679.325 637.725 677.373 653.992C675.746 670.259 674.77 683.272 674.445 693.032C674.119 705.069 671.029 714.016 665.173 719.872C659.317 725.728 651.671 728.656 642.237 728.656Z" fill="black"></path>
</svg><style>@media (prefers-color-scheme: light) { :root { filter: none; } }
@media (prefers-color-scheme: dark) { :root { filter: none; } }
</style></svg>