<svg xmlns="http://www.w3.org/2000/svg" xmlns:xlink="http://www.w3.org/1999/xlink" width="28px" height="28px" viewBox="0 0 28 28" version="1.1">
<g id="surface1">
<path style=" stroke:none;fill-rule:nonzero;fill:rgb(0%,0%,0%);fill-opacity:1;" d="M 2.101562 0 L 25.898438 0 C 27.058594 0 28 0.941406 28 2.101562 L 28 25.898438 C 28 27.058594 27.058594 28 25.898438 28 L 2.101562 28 C 0.941406 28 0 27.058594 0 25.898438 L 0 2.101562 C 0 0.941406 0.941406 0 2.101562 0 Z M 2.101562 0 "/>
<path style=" stroke:none;fill-rule:nonzero;fill:rgb(100%,100%,100%);fill-opacity:1;" d="M 14.125 18.777344 C 14.113281 18.929688 14.050781 19.054688 13.9375 19.152344 C 13.824219 19.246094 13.6875 19.292969 13.535156 19.292969 C 13.363281 19.292969 13.21875 19.238281 13.105469 19.121094 C 12.992188 19.007812 12.933594 18.832031 12.933594 18.589844 C 12.933594 17.96875 12.960938 17.296875 13.019531 16.570312 C 13.078125 15.835938 13.148438 15.109375 13.234375 14.390625 C 13.320312 13.664062 13.40625 12.996094 13.492188 12.382812 C 13.175781 12.832031 12.832031 13.332031 12.460938 13.875 C 12.097656 14.417969 11.726562 14.960938 11.34375 15.496094 C 10.960938 16.03125 10.585938 16.523438 10.222656 16.972656 C 9.859375 17.410156 9.53125 17.769531 9.234375 18.046875 C 8.9375 18.3125 8.695312 18.449219 8.503906 18.449219 C 8.148438 18.449219 7.84375 18.308594 7.585938 18.03125 C 7.328125 17.746094 7.199219 17.386719 7.199219 16.957031 C 7.199219 16.785156 7.21875 16.550781 7.257812 16.253906 C 7.296875 15.949219 7.339844 15.628906 7.386719 15.292969 C 7.433594 14.960938 7.476562 14.648438 7.515625 14.363281 C 7.554688 14.066406 7.570312 13.847656 7.570312 13.703125 C 7.570312 13.570312 7.558594 13.453125 7.527344 13.359375 C 7.511719 13.253906 7.460938 13.203125 7.386719 13.203125 C 7.269531 13.203125 7.113281 13.332031 6.914062 13.589844 C 6.710938 13.835938 6.488281 14.15625 6.238281 14.546875 C 6 14.941406 5.75 15.355469 5.492188 15.796875 C 5.246094 16.234375 5.011719 16.652344 4.789062 17.042969 C 4.570312 17.425781 4.382812 17.726562 4.230469 17.945312 C 4.109375 18.15625 3.992188 18.308594 3.886719 18.40625 C 3.78125 18.5 3.652344 18.546875 3.5 18.546875 C 3.320312 18.546875 3.152344 18.453125 3 18.261719 C 2.855469 18.070312 2.785156 17.835938 2.785156 17.558594 C 2.785156 17.398438 2.8125 17.144531 2.871094 16.800781 C 2.925781 16.445312 3 16.058594 3.085938 15.636719 C 3.179688 15.21875 3.269531 14.808594 3.355469 14.40625 C 3.453125 13.996094 3.535156 13.644531 3.601562 13.359375 C 3.675781 13.035156 3.773438 12.8125 3.886719 12.699219 C 4.003906 12.585938 4.125 12.527344 4.261719 12.527344 C 4.441406 12.527344 4.585938 12.59375 4.691406 12.726562 C 4.804688 12.851562 4.863281 13.046875 4.863281 13.316406 C 4.863281 13.363281 4.832031 13.492188 4.777344 13.703125 C 4.71875 13.902344 4.648438 14.152344 4.5625 14.449219 C 4.484375 14.734375 4.398438 15.035156 4.304688 15.351562 C 4.21875 15.667969 4.144531 15.957031 4.089844 16.226562 C 4.296875 15.871094 4.519531 15.488281 4.746094 15.078125 C 4.988281 14.667969 5.226562 14.261719 5.464844 13.859375 C 5.703125 13.449219 5.941406 13.078125 6.179688 12.742188 C 6.421875 12.398438 6.65625 12.125 6.882812 11.925781 C 7.113281 11.722656 7.332031 11.625 7.542969 11.625 C 7.792969 11.625 8.019531 11.699219 8.230469 11.855469 C 8.453125 12.007812 8.628906 12.210938 8.761719 12.46875 C 8.894531 12.726562 8.960938 13.015625 8.960938 13.332031 C 8.960938 13.550781 8.925781 13.859375 8.847656 14.261719 C 8.773438 14.652344 8.691406 15.078125 8.605469 15.539062 C 8.527344 15.996094 8.480469 16.429688 8.460938 16.84375 C 8.460938 16.9375 8.488281 16.984375 8.546875 16.984375 C 8.59375 16.984375 8.652344 16.953125 8.71875 16.886719 C 8.996094 16.578125 9.300781 16.210938 9.636719 15.78125 C 9.972656 15.34375 10.308594 14.878906 10.65625 14.390625 C 11.007812 13.902344 11.355469 13.425781 11.699219 12.957031 C 12.046875 12.480469 12.363281 12.050781 12.660156 11.667969 C 12.96875 11.277344 13.234375 10.964844 13.464844 10.734375 C 13.703125 10.507812 13.890625 10.390625 14.023438 10.390625 C 14.308594 10.390625 14.53125 10.472656 14.683594 10.636719 C 14.835938 10.796875 14.914062 11.070312 14.914062 11.453125 C 14.914062 11.757812 14.886719 12.15625 14.839844 12.640625 C 14.800781 13.128906 14.75 13.660156 14.683594 14.234375 C 14.625 14.808594 14.558594 15.386719 14.480469 15.96875 C 14.414062 16.542969 14.347656 17.078125 14.28125 17.574219 C 14.214844 18.0625 14.160156 18.460938 14.125 18.777344 Z M 18.160156 20.484375 C 17.996094 20.484375 17.867188 20.425781 17.773438 20.3125 C 17.675781 20.195312 17.628906 20.007812 17.628906 19.738281 C 17.628906 19.261719 17.652344 18.769531 17.699219 18.261719 C 17.757812 17.746094 17.785156 17.269531 17.785156 16.828125 C 17.785156 15.824219 17.695312 14.996094 17.515625 14.347656 C 17.34375 13.6875 16.964844 13.246094 16.382812 13.015625 C 16.246094 12.96875 16.152344 12.914062 16.09375 12.855469 C 16.027344 12.800781 15.996094 12.710938 15.996094 12.585938 C 15.996094 12.449219 16.046875 12.339844 16.152344 12.253906 C 16.246094 12.167969 16.429688 12.125 16.695312 12.125 C 16.917969 12.125 17.207031 12.136719 17.570312 12.15625 C 17.933594 12.171875 18.328125 12.191406 18.746094 12.210938 C 19.042969 11.152344 19.378906 10.273438 19.75 9.574219 C 20.121094 8.875 20.527344 8.328125 20.96875 7.925781 C 21.417969 7.523438 21.890625 7.238281 22.386719 7.066406 C 22.894531 6.894531 23.421875 6.808594 23.964844 6.808594 C 24.203125 6.808594 24.355469 6.839844 24.425781 6.90625 C 24.492188 6.964844 24.523438 7.054688 24.523438 7.179688 C 24.523438 7.332031 24.476562 7.496094 24.378906 7.667969 C 24.285156 7.828125 24.089844 7.933594 23.792969 7.984375 C 23.144531 8.097656 22.566406 8.308594 22.058594 8.613281 C 21.550781 8.917969 21.113281 9.363281 20.738281 9.945312 C 20.367188 10.519531 20.054688 11.277344 19.808594 12.210938 C 20.726562 12.191406 21.511719 12.144531 22.171875 12.070312 C 22.832031 11.984375 23.382812 11.890625 23.820312 11.796875 C 24.269531 11.691406 24.628906 11.605469 24.898438 11.539062 C 25.164062 11.460938 25.371094 11.421875 25.511719 11.421875 C 25.675781 11.421875 25.777344 11.464844 25.8125 11.550781 C 25.851562 11.636719 25.871094 11.730469 25.871094 11.824219 C 25.871094 12.007812 25.699219 12.183594 25.355469 12.355469 C 25.011719 12.519531 24.558594 12.664062 23.992188 12.800781 C 23.4375 12.925781 22.828125 13.023438 22.160156 13.101562 C 21.488281 13.175781 20.832031 13.214844 20.179688 13.214844 C 20.074219 13.214844 19.96875 13.214844 19.863281 13.214844 C 19.769531 13.214844 19.667969 13.214844 19.5625 13.214844 C 19.542969 13.28125 19.53125 13.355469 19.519531 13.429688 C 19.425781 13.984375 19.328125 14.574219 19.234375 15.195312 C 19.148438 15.804688 19.066406 16.40625 18.992188 17 C 18.921875 17.582031 18.871094 18.113281 18.832031 18.589844 C 18.792969 19.070312 18.777344 19.453125 18.777344 19.738281 C 18.777344 19.976562 18.71875 20.160156 18.601562 20.28125 C 18.488281 20.417969 18.339844 20.484375 18.160156 20.484375 Z M 18.503906 13.160156 C 18.226562 13.128906 17.96875 13.089844 17.730469 13.042969 C 17.851562 13.1875 17.957031 13.355469 18.042969 13.546875 C 18.140625 13.738281 18.222656 13.941406 18.289062 14.160156 C 18.355469 13.808594 18.425781 13.472656 18.503906 13.160156 Z M 18.503906 13.160156 "/>
</g>
</svg>
